HIERARCHY
ROOT hip
{
  OFFSET 0.348998 83.0096 -36.5952
  CHANNELS 6 Xposition Yposition Zposition Zrotation Xrotation Yrotation
  JOINT abdomen
  {
    OFFSET 0 20.6881 -0.73152
    CHANNELS 3 Zrotation Xrotation Yrotation
    JOINT chest
    {
      OFFSET 0 11.7043 -0.48768
      CHANNELS 3 Zrotation Xrotation Yrotation
      JOINT neck
      {
        OFFSET 0 22.1894 -2.19456
        CHANNELS 3 Zrotation Xrotation Yrotation
        JOINT head
        {
          OFFSET -0.24384 7.07133 1.2192
          CHANNELS 3 Zrotation Xrotation Yrotation
          JOINT leftEye
          {
            OFFSET 4.14528 8.04674 8.04672
            CHANNELS 3 Zrotation Xrotation Yrotation
            End Site
            {
              OFFSET 1 0 0
            }
          }
          JOINT rightEye
          {
            OFFSET -3.6576 8.04674 8.04672
            CHANNELS 3 Zrotation Xrotation Yrotation
            End Site
            {
              OFFSET 1 0 0
            }
          }
        }
      }
      JOINT rCollar
      {
        OFFSET -2.68224 19.2634 -4.8768
        CHANNELS 3 Zrotation Xrotation Yrotation
        JOINT rShldr
        {
          OFFSET -8.77824 -1.95073 1.46304
          CHANNELS 3 Zrotation Xrotation Yrotation
          JOINT rForeArm
          {
            OFFSET -28.1742 -1.7115 0.48768
            CHANNELS 3 Zrotation Xrotation Yrotation
            JOINT rHand
            {
              OFFSET -22.5879 0.773209 7.07136
              CHANNELS 3 Zrotation Xrotation Yrotation
              JOINT rThumb1
              {
                OFFSET -1.2192 -0.487915 3.41376
                CHANNELS 3 Zrotation Xrotation Yrotation
                JOINT rThumb2
                {
                  OFFSET -3.37035 -0.52449 3.41376
                  CHANNELS 3 Zrotation Xrotation Yrotation
                  End Site
                  {
                    OFFSET -1.78271 -1.18214 1.43049
                  }
                }
              }
              JOINT rIndex1
              {
                OFFSET -7.75947 0.938293 5.60832
                CHANNELS 3 Zrotation Xrotation Yrotation
                JOINT rIndex2
                {
                  OFFSET -2.54057 -0.884171 1.56538
                  CHANNELS 3 Zrotation Xrotation Yrotation
                  End Site
                  {
                    OFFSET -1.62519 -0.234802 1.16502
                  }
                }
              }
              JOINT rMid1
              {
                OFFSET -8.24714 1.18213 3.41376
                CHANNELS 3 Zrotation Xrotation Yrotation
                JOINT rMid2
                {
                  OFFSET -3.10165 -0.590103 1.0647
                  CHANNELS 3 Zrotation Xrotation Yrotation
                  End Site
                  {
                    OFFSET -2.48547 -0.328903 0.83742
                  }
                }
              }
              JOINT rRing1
              {
                OFFSET -8.82822 0.546677 1.51678
                CHANNELS 3 Zrotation Xrotation Yrotation
                JOINT rRing2
                {
                  OFFSET -2.60934 -0.819778 -0.0198488
                  CHANNELS 3 Zrotation Xrotation Yrotation
                  End Site
                  {
                    OFFSET -2.33842 -0.294052 0.168128
                  }
                }
              }
              JOINT rPinky1
              {
                OFFSET -8.27202 -0.0477905 -0.4584
                CHANNELS 3 Zrotation Xrotation Yrotation
                JOINT rPinky2
                {
                  OFFSET -1.82734 -0.647385 -0.700984
                  CHANNELS 3 Zrotation Xrotation Yrotation
                  End Site
                  {
                    OFFSET -1.69225 -0.51767 -0.607171
                  }
                }
              }
            }
          }
        }
      }
      JOINT lCollar
      {
        OFFSET 2.68224 19.2634 -4.8768
        CHANNELS 3 Zrotation Xrotation Yrotation
        JOINT lShldr
        {
          OFFSET 8.77824 -1.95073 1.46304
          CHANNELS 3 Zrotation Xrotation Yrotation
          JOINT lForeArm
          {
            OFFSET 28.1742 -1.7115 0.48768
            CHANNELS 3 Zrotation Xrotation Yrotation
            JOINT lHand
            {
              OFFSET 22.5879 0.773209 7.07136
              CHANNELS 3 Zrotation Xrotation Yrotation
              JOINT lThumb1
              {
                OFFSET 1.2192 -0.487915 3.41376
                CHANNELS 3 Zrotation Xrotation Yrotation
                JOINT lThumb2
                {
                  OFFSET 3.37035 -0.52449 3.41376
                  CHANNELS 3 Zrotation Xrotation Yrotation
                  End Site
                  {
                    OFFSET 1.78271 -1.18214 1.43049
                  }
                }
              }
              JOINT lIndex1
              {
                OFFSET 7.75947 0.938293 5.60832
                CHANNELS 3 Zrotation Xrotation Yrotation
                JOINT lIndex2
                {
                  OFFSET 2.54057 -0.884171 1.56538
                  CHANNELS 3 Zrotation Xrotation Yrotation
                  End Site
                  {
                    OFFSET 1.62519 -0.234802 1.16502
                  }
                }
              }
              JOINT lMid1
              {
                OFFSET 8.24714 1.18213 3.41376
                CHANNELS 3 Zrotation Xrotation Yrotation
                JOINT lMid2
                {
                  OFFSET 3.10165 -0.590103 1.0647
                  CHANNELS 3 Zrotation Xrotation Yrotation
                  End Site
                  {
                    OFFSET 2.48547 -0.328903 0.83742
                  }
                }
              }
              JOINT lRing1
              {
                OFFSET 8.82822 0.546677 1.51678
                CHANNELS 3 Zrotation Xrotation Yrotation
                JOINT lRing2
                {
                  OFFSET 2.60934 -0.819778 -0.0198488
                  CHANNELS 3 Zrotation Xrotation Yrotation
                  End Site
                  {
                    OFFSET 2.33842 -0.294052 0.168128
                  }
                }
              }
              JOINT lPinky1
              {
                OFFSET 8.27202 -0.0477905 -0.4584
                CHANNELS 3 Zrotation Xrotation Yrotation
                JOINT lPinky2
                {
                  OFFSET 1.82734 -0.647385 -0.700984
                  CHANNELS 3 Zrotation Xrotation Yrotation
                  End Site
                  {
                    OFFSET 1.69225 -0.51767 -0.607171
                  }
                }
              }
            }
          }
        }
      }
    }
  }
  JOINT rButtock
  {
    OFFSET -8.77824 4.35084 1.2192
    CHANNELS 3 Zrotation Xrotation Yrotation
    JOINT rThigh
    {
      OFFSET 0 -1.70687 -2.19456
      CHANNELS 3 Zrotation Xrotation Yrotation
      JOINT rShin
      {
        OFFSET 0 -36.8199 0.73152
        CHANNELS 3 Zrotation Xrotation Yrotation
        JOINT rFoot
        {
          OFFSET 0.73152 -45.1104 -5.12064
          CHANNELS 3 Zrotation Xrotation Yrotation
          End Site
          {
            OFFSET -1.1221 -3.69964 12.103
          }
        }
      }
    }
  }
  JOINT lButtock
  {
    OFFSET 8.77824 4.35084 1.2192
    CHANNELS 3 Zrotation Xrotation Yrotation
    JOINT lThigh
    {
      OFFSET 0 -1.70687 -2.19456
      CHANNELS 3 Zrotation Xrotation Yrotation
      JOINT lShin
      {
        OFFSET 0 -36.8199 0.73152
        CHANNELS 3 Zrotation Xrotation Yrotation
        JOINT lFoot
        {
          OFFSET -0.73152 -45.1104 -5.12064
          CHANNELS 3 Zrotation Xrotation Yrotation
          End Site
          {
            OFFSET 1.1221 -3.69964 12.103
          }
        }
      }
    }
  }
}
MOTION
Frames:	6
Frame Time:	0.00833333
-0.945914 96.9082 -50.3388 -0.951944 7.53149 4.80233 -2.21834 19.2351 0.97733 2.62318 1.68953 0.212525 -1.53235 4.21842 -1.23201 4.31955 9.56649 -2.34765 -0 0 0 -0 0 0 6.69366e-014 1.45648e-014 -7.14033e-015 71.1871 18.4948 36.7245 -12.2949 -5.65759 22.182 -1.03415 27.5856 4.21089 -3.3159e-010 7.12784e-010 -4.15888e-010 -5.83352e-010 1.22745e-009 -7.08137e-010 -3.31586e-010 7.12779e-010 -4.15901e-010 7.73091 5.47488 0.417314 -3.3159e-010 7.12783e-010 -4.15893e-010 2.90554 0.965183 0.102902 -3.31577e-010 7.12782e-010 -4.15888e-010 10.2786 0.731801 0.0259123 -3.31589e-010 7.12785e-010 -4.15877e-010 2.22167 -0.733487 -0.20892 6.69928e-014 1.45577e-014 -7.2405e-015 -57.4783 32.6897 -50.2649 14.2903 -7.19243 -26.1375 0.866213 -25.4564 3.83587 -4.82871e-011 -7.39275e-011 -5.53043e-010 -6.98743e-011 -1.06051e-010 -9.59543e-010 -4.82971e-011 -7.39313e-011 -5.53022e-010 -7.73091 5.47488 -0.417314 -4.82845e-011 -7.39219e-011 -5.53037e-010 -2.90554 0.965183 -0.102902 -4.82952e-011 -7.39207e-011 -5.53038e-010 -10.2786 0.731801 -0.0259123 -4.82857e-011 -7.39215e-011 -5.5304e-010 -2.22167 -0.733487 0.20892 -2.03217e-016 0 -3.88251e-019 -5.19724 -33.2218 -9.09927 -0.190378 25.3042 0.0993268 1.09418 22.0112 -5.16359 2.03217e-016 0 3.88251e-019 5.61528 -35.8187 4.88403 0.0646234 24.7901 -0.297753 1.43336 23.8453 -2.87341 
-0.947909 95.7706 -49.5311 -0.984067 7.07414 4.84931 -2.21754 18.6407 1.04027 2.62693 1.80443 0.224833 -1.57365 4.29616 -1.26465 4.44631 10.0912 -2.42973 -0 0 0 -0 0 0 9.46051e-014 -3.17823e-015 -3.73218e-014 71.5567 18.4734 35.7197 -12.2597 -5.63243 22.1137 -1.05645 27.852 4.2588 -2.65191e-010 6.75454e-010 -3.7244e-010 -4.68313e-010 1.16444e-009 -6.34699e-010 -2.65187e-010 6.75452e-010 -3.72452e-010 7.73091 5.47488 0.417314 -2.65191e-010 6.75453e-010 -3.72443e-010 2.90554 0.965183 0.102902 -2.65177e-010 6.75455e-010 -3.7244e-010 10.2786 0.731801 0.0259123 -2.65191e-010 6.75456e-010 -3.72427e-010 2.22167 -0.733487 -0.20892 9.46442e-014 -3.1825e-015 -3.74212e-014 -58.0307 32.7853 -49.2954 14.0932 -7.02995 -25.7419 0.831664 -24.9771 3.75367 -1.55873e-010 -3.0763e-010 -4.26252e-010 -2.59296e-010 -5.16354e-010 -7.41511e-010 -1.55884e-010 -3.07634e-010 -4.26232e-010 -7.73091 5.47488 -0.417314 -1.5587e-010 -3.07624e-010 -4.26245e-010 -2.90554 0.965183 -0.102902 -1.55879e-010 -3.07622e-010 -4.26246e-010 -10.2786 0.731801 -0.0259123 -1.55871e-010 -3.07622e-010 -4.26248e-010 -2.22167 -0.733487 0.20892 -2.03217e-016 0 -3.88251e-019 -5.05452 -32.2594 -8.75958 -0.188305 25.2547 0.107954 0.921542 21.713 -4.66691 2.03217e-016 0 3.88251e-019 5.72761 -35.043 4.9602 0.0648881 24.7641 -0.293799 1.46365 24.028 -2.94571 
-0.944528 94.557 -48.7088 -1.02466 6.60577 4.93548 -2.17375 18.0119 1.07592 2.62073 1.91521 0.231085 -1.60295 4.39094 -1.29745 4.53786 10.5009 -2.50928 -0 0 0 -0 0 0 8.60921e-014 -1.53926e-015 -2.33782e-014 71.9115 18.4697 34.6538 -12.2405 -5.61864 22.0764 -1.07787 28.1037 4.30434 -3.49503e-010 7.91911e-010 -4.03966e-010 -6.1455e-010 1.36374e-009 -6.87154e-010 -3.49499e-010 7.91911e-010 -4.03978e-010 7.73091 5.47488 0.417314 -3.49502e-010 7.91909e-010 -4.03966e-010 2.90554 0.965183 0.102902 -3.49489e-010 7.91914e-010 -4.03966e-010 10.2786 0.731801 0.0259123 -3.49502e-010 7.91914e-010 -4.03953e-010 2.22167 -0.733487 -0.20892 8.60798e-014 -1.54199e-015 -2.34954e-014 -58.5849 32.9148 -48.2267 13.9414 -6.9062 -25.4388 0.808125 -24.6424 3.69666 -2.87913e-010 -5.43865e-010 -3.62367e-010 -4.89305e-010 -9.28268e-010 -6.33128e-010 -2.87923e-010 -5.43869e-010 -3.62351e-010 -7.73091 5.47488 -0.417314 -2.8791e-010 -5.43859e-010 -3.62362e-010 -2.90554 0.965183 -0.102902 -2.87918e-010 -5.43858e-010 -3.62363e-010 -10.2786 0.731801 -0.0259123 -2.87912e-010 -5.43858e-010 -3.62366e-010 -2.22167 -0.733487 0.20892 -2.03217e-016 0 -3.88251e-019 -4.91406 -31.3067 -8.40348 -0.186716 25.3567 0.12629 0.670124 21.2864 -3.91621 2.03217e-016 0 3.88251e-019 5.81846 -34.2757 5.02426 0.0682138 24.9282 -0.299312 1.674 24.4361 -3.48742 
-0.93686 93.2635 -47.8749 -1.07087 6.12491 5.04313 -2.09961 17.3517 1.09762 2.60961 2.0184 0.234427 -1.62908 4.5025 -1.3312 4.60896 10.8171 -2.58765 -0 0 0 -0 0 0 5.61776e-014 1.11323e-014 1.51325e-014 72.2563 18.4728 33.5268 -12.2344 -5.61427 22.0646 -1.09951 28.3541 4.34986 -5.16789e-010 9.86207e-010 -4.69593e-010 -9.04486e-010 1.69559e-009 -7.96538e-010 -5.16786e-010 9.8621e-010 -4.69604e-010 7.73091 5.47488 0.417314 -5.16787e-010 9.86205e-010 -4.6959e-010 2.90554 0.965183 0.102902 -5.16777e-010 9.86213e-010 -4.69595e-010 10.2786 0.731801 0.0259123 -5.16787e-010 9.86213e-010 -4.69583e-010 2.22167 -0.733487 -0.20892 5.60898e-014 1.11308e-014 1.49834e-014 -59.1508 33.0592 -47.0666 13.8216 -6.81019 -25.1984 0.79113 -24.4006 3.65555 -4.37589e-010 -7.90533e-010 -3.26755e-010 -7.49075e-010 -1.35704e-009 -5.74116e-010 -4.37597e-010 -7.90536e-010 -3.26742e-010 -7.73091 5.47488 -0.417314 -4.37587e-010 -7.90529e-010 -3.26752e-010 -2.90554 0.965183 -0.102902 -4.37592e-010 -7.90528e-010 -3.26753e-010 -10.2786 0.731801 -0.0259123 -4.37587e-010 -7.90528e-010 -3.26756e-010 -2.22167 -0.733487 0.20892 -2.03217e-016 0 -3.88251e-019 -4.77497 -30.3562 -8.02427 -0.185731 25.5901 0.152533 0.365994 20.7556 -2.96005 2.03217e-016 0 3.88251e-019 5.89934 -33.51 5.10194 0.0743066 25.2664 -0.312142 2.02466 25.0081 -4.36142 
-0.932372 91.8761 -47.0419 -1.12638 5.63745 5.16688 -1.99013 16.7126 1.09963 2.58744 2.09712 0.233816 -1.65637 4.59314 -1.36211 4.66032 11.0943 -2.65736 -0 0 0 -0 0 0 2.20468e-014 2.14187e-014 5.14814e-014 72.5841 18.464 32.3795 -12.2296 -5.6109 22.0552 -1.12346 28.6292 4.40007 -6.40304e-010 1.07586e-009 -4.74934e-010 -1.11731e-009 1.84703e-009 -8.03101e-010 -6.40303e-010 1.07587e-009 -4.74944e-010 7.73091 5.47488 0.417314 -6.40301e-010 1.07586e-009 -4.74928e-010 2.90554 0.965183 0.102902 -6.40295e-010 1.07587e-009 -4.74937e-010 10.2786 0.731801 0.0259123 -6.40302e-010 1.07587e-009 -4.74926e-010 2.22167 -0.733487 -0.20892 2.18923e-014 2.14181e-014 5.13004e-014 -59.722 33.1804 -45.8545 13.712 -6.72381 -24.9777 0.775408 -24.1786 3.61781 -5.47344e-010 -9.87118e-010 -2.78098e-010 -9.40174e-010 -1.69961e-009 -4.91662e-010 -5.47349e-010 -9.87119e-010 -2.78088e-010 -7.73091 5.47488 -0.417314 -5.47342e-010 -9.87114e-010 -2.78097e-010 -2.90554 0.965183 -0.102902 -5.47345e-010 -9.87114e-010 -2.78098e-010 -10.2786 0.731801 -0.0259123 -5.47342e-010 -9.87114e-010 -2.78103e-010 -2.22167 -0.733487 0.20892 -2.03217e-016 0 -3.88251e-019 -4.64833 -29.4683 -7.67486 -0.186056 26.0604 0.185525 0.0346049 19.6353 -1.90733 2.03217e-016 0 3.88251e-019 5.99376 -32.8075 5.19295 0.083293 25.8771 -0.331771 2.35878 24.8679 -5.31163 
-0.931888 90.4163 -46.231 -1.19513 5.14927 5.30136 -1.84057 16.1469 1.07626 2.54812 2.13452 0.228207 -1.68928 4.62515 -1.38642 4.69281 11.3872 -2.71101 -0 0 0 -0 0 0 8.85042e-016 1.5902e-014 5.89397e-014 72.8868 18.4255 31.2531 -12.2143 -5.6001 22.0255 -1.15206 28.9552 4.45979 -5.93301e-010 8.78406e-010 -3.256e-010 -1.03222e-009 1.50515e-009 -5.47095e-010 -5.933e-010 8.78413e-010 -3.25609e-010 7.73091 5.47488 0.417314 -5.93297e-010 8.78404e-010 -3.25593e-010 2.90554 0.965183 0.102902 -5.93294e-010 8.78416e-010 -3.25604e-010 10.2786 0.731801 0.0259123 -5.93298e-010 8.78415e-010 -3.25593e-010 2.22167 -0.733487 -0.20892 7.05288e-016 1.5902e-014 5.87409e-014 -60.2892 33.2418 -44.6329 13.5903 -6.62856 -24.7334 0.756172 -23.9034 3.57121 -5.59622e-010 -1.0731e-009 -1.7508e-010 -9.64172e-010 -1.85296e-009 -3.12955e-010 -5.59625e-010 -1.0731e-009 -1.7507e-010 -7.73091 5.47488 -0.417314 -5.5962e-010 -1.0731e-009 -1.7508e-010 -2.90554 0.965183 -0.102902 -5.59622e-010 -1.0731e-009 -1.75081e-010 -10.2786 0.731801 -0.0259123 -5.5962e-010 -1.0731e-009 -1.75086e-010 -2.22167 -0.733487 0.20892 -2.03217e-016 0 -3.88251e-019 -4.53984 -28.7046 -7.40505 -0.188792 26.8729 0.224307 -0.265514 17.442 -0.8787 2.03217e-016 0 3.88251e-019 6.12578 -32.2299 5.29702 0.095621 26.859 -0.35787 2.45697 23.1495 -6.0585 
